{
  "asset": {
    "generator": "Khronos glTF Blender I/O v1.7.33",
    "version": "2.0"
  },
  "scene": 0,
  "scenes": [
    {
      "name": "Scene",
      "nodes": [
        0
      ]
    }
  ],
  "nodes": [
    {
      "mesh": 0,
      "name": "Colonial Classic",
      "translation": [
        -0.025400005280971527,
        0,
        -0.45719999074935913
      ]
    }
  ],
  "materials": [
    {
      "doubleSided": true,
      "name": "concrete_grey",
      "normalTexture": {
        "index": 0
      },
      "pbrMetallicRoughness": {
        "baseColorTexture": {
          "index": 1
        },
        "metallicFactor": 0
      }
    }
  ],
  "meshes": [
    {
      "name": "Cube.004",
      "primitives": [
        {
          "attributes": {
            "POSITION": 0,
            "NORMAL": 1,
            "TEXCOORD_0": 2
          },
          "indices": 3,
          "material": 0
        }
      ]
    }
  ],
  "textures": [
    {
      "sampler": 0,
      "source": 0
    },
    {
      "sampler": 0,
      "source": 1
    }
  ],
  "images": [
    {
      "name": "Colonial Classic Grey - Normal",
      "uri": "Colonial Classic_img0.png"
    },
    {
      "name": "Colonial Classic Grey - Color",
      "uri": "Colonial Classic_img1.png"
    }
  ],
  "accessors": [
    {
      "bufferView": 0,
      "componentType": 5126,
      "count": 795,
      "max": [
        0.0492125004529953,
        0.030162500217556953,
        0.10001248866319656
      ],
      "min": [
        -0.0492125004529953,
        -0.030162500217556953,
        -0.10001248866319656
      ],
      "type": "VEC3"
    },
    {
      "bufferView": 1,
      "componentType": 5126,
      "count": 795,
      "type": "VEC3"
    },
    {
      "bufferView": 2,
      "componentType": 5126,
      "count": 795,
      "type": "VEC2"
    },
    {
      "bufferView": 3,
      "componentType": 5123,
      "count": 3012,
      "type": "SCALAR"
    }
  ],
  "bufferViews": [
    {
      "buffer": 0,
      "byteLength": 9540,
      "byteOffset": 0
    },
    {
      "buffer": 0,
      "byteLength": 9540,
      "byteOffset": 9540
    },
    {
      "buffer": 0,
      "byteLength": 6360,
      "byteOffset": 19080
    },
    {
      "buffer": 0,
      "byteLength": 6024,
      "byteOffset": 25440
    }
  ],
  "samplers": [
    {
      "magFilter": 9729,
      "minFilter": 9987
    }
  ],
  "buffers": [
    {
      "uri": "Colonial Classic_data.bin",
      "byteLength": 31464
    }
  ]
}