{
	"asset": {
		"generator": "Khronos glTF Blender I/O v3.2.40",
		"version": "2.0"
	},
	"scene": 0,
	"scenes": [
		{
			"name": "Scene",
			"nodes": [0, 1, 2]
		}
	],
	"nodes": [
		{
			"mesh": 0,
			"name": "Old World Cobble Half.001"
		},
		{
			"mesh": 1,
			"name": "Old World Cobble Regular.001"
		},
		{
			"mesh": 2,
			"name": "Old World Cobble Square.001"
		}
	],
	"materials": [
		{
			"doubleSided": true,
			"name": "concrete",
			"normalTexture": {
				"index": 0
			},
			"pbrMetallicRoughness": {
				"baseColorTexture": {
					"index": 1
				},
				"metallicFactor": 0,
				"metallicRoughnessTexture": {
					"index": 2
				}
			}
		}
	],
	"meshes": [
		{
			"name": "Old World Cobble Half",
			"primitives": [
				{
					"attributes": {
						"POSITION": 0,
						"NORMAL": 1,
						"TEXCOORD_0": 2
					},
					"indices": 3,
					"material": 0
				}
			]
		},
		{
			"name": "Old World Cobble Regular",
			"primitives": [
				{
					"attributes": {
						"POSITION": 4,
						"NORMAL": 5,
						"TEXCOORD_0": 6
					},
					"indices": 7,
					"material": 0
				}
			]
		},
		{
			"name": "Old World Cobble Square",
			"primitives": [
				{
					"attributes": {
						"POSITION": 8,
						"NORMAL": 9,
						"TEXCOORD_0": 10
					},
					"indices": 11,
					"material": 0
				}
			]
		}
	],
	"textures": [
		{
			"sampler": 0,
			"source": 0
		},
		{
			"sampler": 0,
			"source": 1
		},
		{
			"sampler": 0,
			"source": 2
		}
	],
	"images": [
		{
			"mimeType": "image/png",
			"name": "concrete_normal",
			"uri": "textures/concrete_normal.png"
		},
		{
			"mimeType": "image/png",
			"name": "concrete_ash",
			"uri": "textures/concrete_ash.png"
		},
		{
			"mimeType": "image/png",
			"name": "concrete_roughness",
			"uri": "textures/concrete_roughness.png"
		}
	],
	"accessors": [
		{
			"bufferView": 0,
			"componentType": 5126,
			"count": 528,
			"max": [0.11879833042621613, 0.030162500217556953, -0.028865324333310127],
			"min": [
				0.0005816741031594574, -0.030162500217556953, -0.0879746749997139
			],
			"type": "VEC3"
		},
		{
			"bufferView": 1,
			"componentType": 5126,
			"count": 528,
			"type": "VEC3"
		},
		{
			"bufferView": 2,
			"componentType": 5126,
			"count": 528,
			"type": "VEC2"
		},
		{
			"bufferView": 3,
			"componentType": 5123,
			"count": 1908,
			"type": "SCALAR"
		},
		{
			"bufferView": 4,
			"componentType": 5126,
			"count": 537,
			"max": [
				0.00023744298960082233, 0.030162502080202103, 0.08989040553569794
			],
			"min": [
				-0.11961743980646133, -0.030162500217556953, -0.08989040553569794
			],
			"type": "VEC3"
		},
		{
			"bufferView": 5,
			"componentType": 5126,
			"count": 537,
			"type": "VEC3"
		},
		{
			"bufferView": 6,
			"componentType": 5126,
			"count": 537,
			"type": "VEC2"
		},
		{
			"bufferView": 7,
			"componentType": 5123,
			"count": 1908,
			"type": "SCALAR"
		},
		{
			"bufferView": 8,
			"componentType": 5126,
			"count": 537,
			"max": [0.11941530555486679, 0.030162500217556953, 0.09020531177520752],
			"min": [
				-3.530766844050959e-5, -0.030162500217556953, -0.029245303943753242
			],
			"type": "VEC3"
		},
		{
			"bufferView": 9,
			"componentType": 5126,
			"count": 537,
			"type": "VEC3"
		},
		{
			"bufferView": 10,
			"componentType": 5126,
			"count": 537,
			"type": "VEC2"
		},
		{
			"bufferView": 11,
			"componentType": 5123,
			"count": 1908,
			"type": "SCALAR"
		}
	],
	"bufferViews": [
		{
			"buffer": 0,
			"byteLength": 6336,
			"byteOffset": 0
		},
		{
			"buffer": 0,
			"byteLength": 6336,
			"byteOffset": 6336
		},
		{
			"buffer": 0,
			"byteLength": 4224,
			"byteOffset": 12672
		},
		{
			"buffer": 0,
			"byteLength": 3816,
			"byteOffset": 16896
		},
		{
			"buffer": 0,
			"byteLength": 6444,
			"byteOffset": 20712
		},
		{
			"buffer": 0,
			"byteLength": 6444,
			"byteOffset": 27156
		},
		{
			"buffer": 0,
			"byteLength": 4296,
			"byteOffset": 33600
		},
		{
			"buffer": 0,
			"byteLength": 3816,
			"byteOffset": 37896
		},
		{
			"buffer": 0,
			"byteLength": 6444,
			"byteOffset": 41712
		},
		{
			"buffer": 0,
			"byteLength": 6444,
			"byteOffset": 48156
		},
		{
			"buffer": 0,
			"byteLength": 4296,
			"byteOffset": 54600
		},
		{
			"buffer": 0,
			"byteLength": 3816,
			"byteOffset": 58896
		}
	],
	"samplers": [
		{
			"magFilter": 9729,
			"minFilter": 9987
		}
	],
	"buffers": [
		{
			"byteLength": 62712,
			"uri": "bin/owc.bin"
		}
	]
}
